<?xml version="1.0" encoding="UTF-8" standalone="no"?>
<!-- Created with Inkscape (http://www.inkscape.org/) -->

<svg
   width="700mm"
   height="700mm"
   viewBox="0 0 2645.6693 2645.6693"
   version="1.1"
   id="svg1"
   inkscape:version="1.4.3 (0d15f75, 2025-12-25)"
   xml:space="preserve"
   sodipodi:docname="no-bullshit.svg"
   xmlns:inkscape="http://www.inkscape.org/namespaces/inkscape"
   xmlns:sodipodi="http://sodipodi.sourceforge.net/DTD/sodipodi-0.dtd"
   xmlns:xlink="http://www.w3.org/1999/xlink"
   xmlns="http://www.w3.org/2000/svg"
   xmlns:svg="http://www.w3.org/2000/svg"
   xmlns:rdf="http://www.w3.org/1999/02/22-rdf-syntax-ns#"
   xmlns:cc="http://creativecommons.org/ns#"
   xmlns:dc="http://purl.org/dc/elements/1.1/"><title
     id="title1">No Bullshit</title><sodipodi:namedview
     id="namedview1"
     pagecolor="#ffffff"
     bordercolor="#000000"
     borderopacity="0.25"
     inkscape:showpageshadow="2"
     inkscape:pageopacity="0.0"
     inkscape:pagecheckerboard="0"
     inkscape:deskcolor="#d1d1d1"
     inkscape:document-units="px"
     inkscape:zoom="0.21884821"
     inkscape:cx="1322.8346"
     inkscape:cy="1322.8346"
     inkscape:current-layer="layer1"
     showgrid="false" /><defs
     id="defs1"><linearGradient
       id="swatch6"
       inkscape:swatch="solid"
       inkscape:label="White Sign Background"><stop
         style="stop-color:#ffffff;stop-opacity:1;"
         offset="0"
         id="stop6" /></linearGradient><linearGradient
       id="swatch4"
       inkscape:swatch="solid"
       inkscape:label="Yellow Sign Background"><stop
         style="stop-color:#fed300;stop-opacity:1;"
         offset="0"
         id="stop4" /></linearGradient><linearGradient
       id="swatch2"
       inkscape:swatch="solid"
       inkscape:label="Bull Black"><stop
         style="stop-color:#000000;stop-opacity:1;"
         offset="0"
         id="stop2" /></linearGradient><linearGradient
       id="swatch1"
       inkscape:swatch="solid"
       inkscape:label="RAL 3020"><stop
         style="stop-color:#e42b38;stop-opacity:1;"
         offset="0"
         id="stop1" /></linearGradient><linearGradient
       inkscape:collect="always"
       xlink:href="#swatch1"
       id="linearGradient3"
       x1="1501.4504"
       y1="1547"
       x2="3302.5496"
       y2="1547"
       gradientUnits="userSpaceOnUse" /><linearGradient
       inkscape:collect="always"
       xlink:href="#swatch2"
       id="linearGradient2"
       x1="1682.5312"
       y1="1494.486"
       x2="3054.9602"
       y2="1494.486"
       gradientUnits="userSpaceOnUse"
       gradientTransform="matrix(1.073247,0,0,1.073247,202.9666,222.56436)" /><linearGradient
       inkscape:collect="always"
       xlink:href="#swatch1"
       id="linearGradient5"
       x1="2327"
       y1="1547"
       x2="2477"
       y2="1547"
       gradientUnits="userSpaceOnUse"
       gradientTransform="translate(5.6568544,-5.6568544)" /><linearGradient
       inkscape:collect="always"
       xlink:href="#swatch6"
       id="linearGradient6"
       x1="-295.47321"
       y1="3284.207"
       x2="1504.6259"
       y2="3284.207"
       gradientUnits="userSpaceOnUse" /></defs><g
     inkscape:label="Logo"
     inkscape:groupmode="layer"
     id="layer1"
     transform="translate(-1426.9505,-571.9505)"><circle
       style="display:inline;fill:url(#linearGradient6);fill-opacity:1;stroke:none;stroke-width:0;stroke-dasharray:none;stroke-opacity:1;paint-order:stroke fill markers"
       id="circle2"
       cx="604.57629"
       cy="3284.207"
       r="900.0495"
       inkscape:label="White Circle"
       transform="rotate(-45)" /><path
       style="fill:url(#linearGradient2);fill-opacity:1;stroke-width:1.07325"
       d="m 2766.2969,2290.8773 c -64.7445,-1.1485 -170.2272,-4.3577 -199.1302,-6.0586 -102.5382,-6.0339 -177.6365,-13.4017 -233.0142,-22.8605 -19.7668,-3.3763 -20.3239,-3.3778 -33.3777,-0.089 -19.1676,4.8296 -46.9045,7.0623 -87.7356,7.0623 -83.1838,0 -142.6489,-13.0524 -158.9843,-34.8966 -4.245,-5.6765 -5.6386,-17.7398 -2.9801,-25.7954 2.5149,-7.6205 16.5027,-21.0442 27.4912,-26.3828 6.9859,-3.394 8.2561,-4.8522 9.1622,-10.5184 2.2144,-13.8489 12.463,-23.986 31.0553,-30.7182 10.5505,-3.8202 10.9917,-4.2355 14.571,-13.7126 4.4002,-11.6504 8.1448,-16.4909 18.6302,-24.0827 25.2835,-18.306 69.7578,-16.0646 89.7679,4.5242 4.2881,4.4122 8.9724,11.6065 10.6711,16.3892 l 3.0277,8.5247 9.9791,0.7219 c 22.3141,1.6141 40.6545,17.0873 40.6545,34.2989 0,8.3017 1.0915,9.526 12.3904,13.8956 10.5128,4.0657 25.8229,15.7191 29.1797,22.2104 1.6114,3.1161 2.681,9.9122 2.681,17.0344 v 11.8499 l 12.8329,-1.1311 c 7.058,-0.6221 26.1745,-1.6595 42.4811,-2.3053 22.7469,-0.901 29.6482,-1.7169 29.6482,-3.5053 0,-1.282 -2.3556,-11.5293 -5.2346,-22.7718 -7.2822,-28.4371 -14.0923,-40.3514 -38.8484,-67.965 -21.8673,-24.3913 -30.2589,-37.9179 -30.2589,-48.7751 0,-5.3634 1.5661,-7.8794 10.2603,-16.4844 5.6433,-5.5852 11.4405,-12.0337 12.8828,-14.3299 l 2.6222,-4.175 12.2386,3.7801 c 6.7312,2.0791 19.4531,4.9503 28.2709,6.3804 23.5072,3.8127 64.7086,3.3109 64.7086,-0.7882 0,-0.6546 -8.5626,-2.6177 -19.028,-4.3624 -50.5158,-8.4215 -79.8539,-16.5546 -97.0336,-26.8997 -23.045,-13.8769 -39.1923,-31.3729 -52.345,-56.7167 l -7.713,-14.8622 -16.8154,1.0885 c -52.0043,3.3661 -91.4372,-28.3051 -97.7769,-78.5311 -1.6332,-12.9396 -1.4559,-20.2238 1.0006,-41.1118 2.9547,-25.123 2.9477,-25.4641 -0.6721,-32.9416 -4.4827,-9.2598 -15.0533,-14.2617 -25.9359,-12.2725 -14.1405,2.5847 -18.2874,8.378 -23.6784,33.0789 -1.9161,8.7792 -5.7989,20.5483 -8.6285,26.1536 -6.0266,11.9387 -21.218,26.5924 -34.3932,33.1757 -23.3113,11.6483 -27.5089,27.66 -12.8668,49.0804 8.3738,12.2502 5.7333,14.9499 -11.6664,11.9274 -17.8141,-3.0944 -37.9375,-14.0986 -50.667,-27.7065 -17.292,-18.4852 -25.0188,-37.3219 -24.9819,-60.9012 0.095,-60.8662 54.9281,-107.6858 136.8091,-116.816 42.5757,-4.7475 70.9033,1.3563 90.6133,19.5243 19.0956,17.6017 23.1886,35.6936 18.4151,81.398 -4.4776,42.8704 7.0682,63.5637 35.4652,63.5637 h 10.9096 l -1.4154,-11.0629 c -1.9466,-15.2144 -1.2718,-52.9159 1.1964,-66.8352 4.2042,-23.7106 15.948,-54.7494 29.7513,-78.6326 57.6837,-99.8074 160.6414,-193.403 276.7507,-251.5856 73.3596,-36.7605 143.3039,-56.1587 211.4494,-58.6429 44.1133,-1.6081 79.3511,4.2129 114.8832,18.9779 26.21,10.8913 53.9968,27.5849 53.9787,32.4291 0,1.1256 -5.9097,5.0765 -13.1235,8.7797 -15.2458,7.8265 -33.5742,23.9071 -41.7233,36.6064 -11.5644,18.0215 -15.4325,41.9858 -9.6369,59.7037 2.8304,8.6528 10.1722,17.1311 13.7973,15.9332 1.3089,-0.4326 2.3287,-8.718 2.9028,-23.5856 0.8328,-21.5666 1.2367,-23.6321 6.8456,-35.0136 13.8042,-28.0113 47.7483,-52.4702 91.5682,-65.9809 14.5709,-4.4925 18.0807,-4.8631 46.73,-4.9335 31.4388,-0.077 38.9409,1.2449 38.9409,6.8629 0,1.3181 -5.7845,7.4533 -12.8544,13.6339 -25.3476,22.1592 -43.7871,46.737 -43.7871,58.3635 0,4.7152 0.2019,4.8212 5.7528,3.0238 3.1639,-1.0247 11.3282,-3.3818 18.1429,-5.2383 52.9622,-14.4279 127.3599,0.1601 182.2891,35.7436 l 16.2792,10.5456 h 32.9396 c 18.1169,0 37.1606,-0.8963 42.3196,-1.9917 22.474,-4.7723 41.9411,-20.5937 49.1953,-39.9826 5.8301,-15.5824 8.0097,-35.2546 5.5536,-50.1267 -1.1405,-6.9056 -1.6124,-13.3017 -1.0487,-14.2137 3.0509,-4.9366 9.7316,-0.9149 25.9138,15.5999 13.8494,14.134 18.2205,19.9813 24.1481,32.3033 9.6412,20.0413 12.8832,33.0623 13.0008,52.2164 0.1869,30.4061 -8.7551,51.9899 -30.5609,73.7669 -22.5414,22.5116 -51.8564,34.5303 -94.8572,38.8898 -18.9661,1.9228 -20.1645,2.274 -19.6664,5.762 0.4177,2.9248 3.3392,4.6101 13.7412,7.927 11.1083,3.5422 14.6976,5.7356 22.554,13.7827 15.3612,15.7339 30.6312,27.5444 41.1023,31.7906 5.4258,2.2003 10.0891,5.0653 10.3626,6.3669 0.558,2.6542 -19.7111,18.553 -30.5882,23.9928 -13.5755,6.7895 -25.5948,9.2418 -45.2974,9.2418 h -18.9893 l -7.0813,12.8328 c -7.9532,14.4129 -14.8412,21.662 -27.6769,29.1276 -7.4208,4.3161 -9.4558,6.7265 -13.2076,15.6443 -3.8325,9.1097 -4.4322,13.1874 -4.4136,30.0125 0.026,23.6316 3.2144,32.2069 16.5365,44.4787 10.7826,9.9325 13.2034,16.6141 12.1224,33.4584 -1.0337,16.1083 -5.9314,25.026 -21.2758,38.7393 -13.6972,12.2412 -34.3848,22.6797 -55.3313,27.9189 -21.1854,5.2991 -66.4669,5.7486 -89.1275,0.885 -38.6879,-8.3037 -66.1014,-26.3306 -77.4727,-50.9456 -4.1997,-9.0911 -5.2892,-10.1273 -13.364,-12.7094 -8.498,-2.7176 -8.8908,-2.689 -11.7662,0.8578 -9.9552,12.2804 -15.1655,17.4799 -28.7616,28.7018 -8.3417,6.885 -18.8956,15.0906 -23.4531,18.2344 -5.9929,4.1342 -8.2864,6.8962 -8.2864,9.9798 0,6.3389 8.1517,33.2873 13.9119,45.9913 3.9554,8.7235 35.3776,57.2076 53.1914,82.0739 1.5474,2.1601 6.3979,5.616 10.7787,7.6799 38.5632,18.1666 67.8229,45.6743 77.4673,72.8289 1.6586,4.6701 3.5019,8.4911 4.096,8.4911 0.5941,0 2.5295,-1.6015 4.3009,-3.5588 2.7163,-3.0014 2.9237,-4.5262 1.325,-9.7353 -1.7961,-5.8521 -1.6751,-6.1764 2.303,-6.1764 7.4957,0 43.713,5.4372 60.9533,9.1509 75.0525,16.1666 2.9015,32.7522 -183.1913,42.1106 -66.9362,3.3662 -191.1309,5.4613 -255.7715,4.3147 z m -19.6492,-24.3852 c 2.5391,-3.0594 0.7774,-7.967 -7.4519,-20.7598 -8.025,-12.4751 -14.7871,-18.8125 -17.3444,-16.2551 -2.2897,2.2896 9.9379,29.7278 15.9086,35.6985 4.3926,4.3925 6.1221,4.6486 8.8877,1.3164 z m 355.5153,-2.216 c 6.2496,-1.6748 4.9017,-7.6406 -4.8701,-21.5552 -7.7074,-10.9749 -19.2164,-21.5803 -23.419,-21.5803 -2.6324,0 -1.3037,5.0563 3.9573,15.0573 2.9239,5.5587 6.5648,14.4013 8.0908,19.6503 2.4685,8.4917 3.297,9.5408 7.5163,9.5194 2.6081,-0.013 6.5343,-0.5045 8.7247,-1.0915 z m -91.4462,-6.9366 c -19.468,-9.132 -27.8783,-16.7017 -30.9913,-27.8935 -1.4059,-5.0548 -3.099,-13.5713 -3.7624,-18.9256 -1.5598,-12.5889 -5.6187,-23.1855 -13.7492,-35.8948 -9.9092,-15.4897 -18.7507,-24.1839 -42.0625,-41.3622 l -21.2657,-15.6705 -30.3087,-50.4462 c -16.6698,-27.7455 -39.9975,-66.3768 -51.8396,-85.8472 -11.842,-19.4705 -26.0016,-43.034 -31.4655,-52.3632 -10.7236,-18.3095 -14.5365,-22.7002 -17.3068,-19.9301 -1.1155,1.1157 1.3904,9.5632 7.1182,23.9952 14.1595,35.6773 20.7822,49.0325 31.9086,64.3468 15.1491,20.8507 26.3522,39.8873 45.2434,76.8786 9.1977,18.0103 19.4216,36.3953 22.7198,40.8556 3.433,4.6428 12.3246,12.3695 20.7986,18.0738 9.4645,6.3711 18.7253,14.6163 25.6827,22.8661 5.9845,7.0961 17.7911,20.8672 26.2369,30.6024 17.0919,19.7012 17.8119,21.033 21.3393,39.4692 4.3295,22.6284 11.8358,29.7855 36.2757,34.5883 19.3567,3.8038 19.9219,3.4559 5.4285,-3.3427 z m -232.9932,-10.2989 c 1.6101,-4.5558 1.295,-6.1639 -3.4218,-17.4625 -1.1932,-2.8584 1.8949,-3.1002 45.2143,-3.5401 30.7993,-0.3128 46.706,-1.1062 47.12,-2.35 0.3438,-1.0328 -3.3488,-6.8294 -8.2058,-12.8813 -11.5428,-14.3826 -13.2975,-21.099 -10.7113,-40.9974 1.5242,-11.7277 1.5134,-17.39 -0.044,-23.1744 -2.4019,-8.9201 -13.2669,-30.8634 -27.0877,-54.7076 -11.3375,-19.56 -7.2234,-18.3823 -44.5551,-12.7541 -49.2189,7.4202 -109.6937,10.18 -113.8311,5.1947 -1.3858,-1.6698 0.4342,-5.2041 7.0637,-13.7178 13.0371,-16.7422 24.0388,-36.2849 28.3786,-50.4097 4.9235,-16.0246 5.2405,-41.3971 0.7063,-56.5357 -12.2534,-40.9109 -65.1821,-107.9285 -98.7734,-125.0655 -3.8978,-1.9885 -7.5141,-3.1883 -8.0362,-2.666 -1.7655,1.7653 16.123,34.7067 25.1116,46.2426 4.9097,6.3009 15.5604,19.2247 23.6682,28.7193 19.4302,22.7535 27.4477,35.0116 32.4,49.5376 5.4636,16.025 5.4519,37.3082 -0.029,53.5726 -6.218,18.4506 -22.3898,49.3209 -33.8526,64.6208 -9.4962,12.675 -10.5986,15.0259 -10.6015,22.6044 0,5.9642 1.634,11.7053 5.5492,19.4705 17.6201,34.9468 35.4163,50.3798 77.1601,66.9138 20.5002,8.1198 31.3591,14.9494 40.0343,25.1791 9.1865,10.8328 18.0282,26.2933 19.7348,34.5086 1.405,6.7633 4.5599,6.6273 7.0088,-0.3019 z m -162.9209,-14.8372 c -4.4024,-9.4919 -9.971,-20.6183 -12.3745,-24.7254 -7.8338,-13.3858 -23.9694,-28.7996 -45.2404,-43.2164 -28.1947,-19.1095 -42.2374,-35.1974 -42.2374,-48.3891 0,-2.7766 3.3316,-9.3942 8.0783,-16.0462 4.4432,-6.2265 9.6206,-15.7085 11.5053,-21.071 6.5505,-18.6371 3.1513,-40.9782 -5.5281,-36.3332 -2.1473,1.1492 -3.4353,3.7005 -3.4353,6.805 0,13.9784 -11.0528,33.7412 -30.6553,54.8123 -10.2619,11.0309 -10.4553,11.4267 -9.6548,19.758 0.6371,6.6301 3.0742,11.8941 11.0715,23.9133 8.9706,13.482 12.0673,16.5812 24.73,24.75 17.0745,11.0149 26.4562,21.1123 35.3619,38.06 l 6.5107,12.39 h 18.3767 18.3766 l 4.9799,9.2429 c 3.9252,7.2852 14.102,17.3077 17.5741,17.3077 0.3109,0 -3.0367,-7.766 -7.4392,-17.2579 z m -485.2293,-39.7237 c 8.447,-4.3341 13.2802,-5.6504 20.7475,-5.6504 7.4674,0 12.3007,1.3163 20.7476,5.6504 12.8477,6.592 19.0282,7.1652 21.7817,2.0203 4.2101,-7.8668 -9.9029,-21.9579 -27.3626,-27.32 -12.9183,-3.9675 -26.7872,-3.4168 -37.3051,1.481 -15.0892,7.0267 -24.4647,21.0988 -18.2185,27.345 3.3444,3.3445 7.7692,2.5488 19.6094,-3.5263 z m 136.0614,-5.7207 c 2.9823,-6.5455 -3.5264,-18.6888 -12.8155,-23.9096 -9.1301,-5.1314 -24.4932,-4.5703 -30.165,1.1017 -3.3134,3.3133 -3.3601,3.7768 -0.6535,6.4834 1.6033,1.6032 5.0485,2.9324 7.6562,2.9538 6.8282,0.056 18.076,5.7163 24.1003,12.1282 6.248,6.65 9.2696,6.9661 11.8775,1.2425 z m -86.9814,-54.3412 c 3.4009,-1.0947 12.9459,-2.4886 21.2111,-3.0975 12.2813,-0.9047 15.1339,-1.6645 15.6085,-4.1573 0.7656,-4.0196 -8.7881,-9.7844 -18.6714,-11.2665 -15.1073,-2.2654 -33.4986,8.5053 -30.0166,17.5792 1.3258,3.455 3.5209,3.6293 11.8684,0.9421 z m 969.9732,-113.7348 c 0,-1.3432 -4.3477,-5.725 -9.6617,-9.737 -5.3138,-4.012 -11.8851,-11.0773 -14.6028,-15.7005 -4.5326,-7.711 -4.9412,-9.8932 -4.9412,-26.3945 0,-9.8937 -0.4869,-18.4786 -1.082,-19.0775 -2.362,-2.3771 -10.6007,2.8218 -15.8575,10.0065 -5.2444,7.1679 -5.4996,8.2446 -4.5984,19.404 1.1211,13.8823 4.3356,20.9173 12.2434,26.7955 17.2709,12.838 38.5002,20.9457 38.5002,14.7035 z m -191.4907,-20.2147 c 1.5903,-10.7923 -21.4309,-84.1649 -29.0485,-92.5821 -5.9703,-6.5972 -8.3827,-4.3489 -7.3224,6.824 1.5742,16.5866 23.0458,79.7687 30.0965,88.5612 2.5129,3.1338 5.6029,1.7533 6.2744,-2.8031 z m 287.9349,1.2951 c 9.3856,-2.8989 13.8484,-5.5926 21.4269,-12.9329 9.1993,-8.9103 9.5723,-9.6349 9.5723,-18.6003 0,-7.9506 -0.7644,-10.093 -5.174,-14.5026 -7.7491,-7.7491 -17.7909,-6.8759 -28.0143,2.4359 -5.2895,4.8178 -5.0249,8.0119 0.8489,10.2451 12.7151,4.8342 9.6215,17.7967 -6.9031,28.9251 -4.6933,3.1607 -8.0058,6.2742 -7.361,6.919 1.6881,1.6881 2.4978,1.5589 15.6043,-2.4893 z m -53.281,-17.8086 c 5.3293,-2.4281 8.9405,-10.4096 7.245,-16.0127 -1.8538,-6.1269 -9.4879,-13.5049 -16.2995,-15.7529 -15.8825,-5.2417 -28.3771,5.677 -23.4791,20.5178 2.2323,6.7641 5.3009,8.2528 5.3009,2.5717 0,-8.7213 12.411,-5.5031 17.1568,4.4488 3.2868,6.8927 3.7758,7.0979 10.0759,4.2273 z m -186.5368,-56.614 c 0,-1.0847 -3.8534,-6.4611 -8.5633,-11.9478 -28.2158,-32.8698 -51.9434,-84.7999 -56.608,-123.8924 -1.8391,-15.4126 -3.562,-19.1241 -8.0741,-17.3926 -4.3374,1.6644 -8.0294,10.7145 -10.0192,24.5601 -5.5726,38.7751 15.6244,86.5612 50.8313,114.5933 15.3612,12.2309 32.4333,19.642 32.4333,14.0794 z m 239.0725,-15.7904 c 3.0173,-1.6149 3.4308,-3.8737 3.4833,-19.0281 0.033,-9.4576 0.8113,-25.5373 1.7299,-35.7329 1.8387,-20.407 0.7392,-24.1258 -5.4712,-18.5055 -6.2544,5.66 -11.9574,16.9814 -14.8608,29.5008 -3.5664,15.3785 -8.609,23.689 -16.9581,27.9484 -3.7071,1.8912 -7.1838,4.1562 -7.7259,5.0334 -1.7585,2.8453 4.1504,6.0148 17.1856,9.2183 15.2986,3.7597 18.1486,3.9571 22.6172,1.5656 z m -129.9646,-58.07 c 5.0052,-1.7298 13.1319,-6.2196 18.0593,-9.9773 l 8.959,-6.8323 -10.5936,-11.9491 -10.5937,-11.949 -8.5049,8.5049 c -12.482,12.4819 -24.8624,13.88 -34.8282,3.9329 -4.4424,-4.434 -4.6949,-5.5017 -3.7373,-15.8014 1.1582,-12.4576 3.1522,-10.819 -17.4222,-14.3179 -5.8411,-0.9934 -12.7962,-2.3542 -15.4556,-3.024 -4.188,-1.055 -5.0982,-0.5397 -6.7991,3.8497 -2.5644,6.6181 -0.9641,19.9015 3.4215,28.3999 6.1296,11.878 24.3137,26.5512 37.6655,30.3934 9.8361,2.8305 29.8711,2.2119 39.8293,-1.2298 z m -1049.8271,-9.8578 c 1.5382,-2.3476 4.7662,-9.7154 7.1733,-16.3729 4.3109,-11.923 14.6879,-28.7215 25.8074,-41.7774 4.1878,-4.9171 5.1548,-7.1816 3.6918,-8.6446 -4.9123,-4.9123 -35.0304,20.5841 -41.5632,35.185 -3.8841,8.6812 -5.0368,22.2553 -2.6334,31.0106 1.6459,5.995 3.8725,6.1724 7.5241,0.5993 z m 1221.706,-10.8445 c 8.7774,-3.6675 12.7248,-7.4414 16.5919,-15.8629 3.8615,-8.4091 4.4846,-22.1256 1.0051,-22.1256 -1.2781,0 -4.6633,2.4691 -7.5227,5.4868 -2.8593,3.0179 -8.6634,7.8899 -12.898,10.8269 -4.2577,2.953 -8.8072,7.9915 -10.1779,11.2717 -3.0576,7.3181 -3.0677,6.9733 0.3031,10.3442 3.4483,3.4481 4.5744,3.4534 12.6985,0.059 z m -109.7349,-21.2699 c 7.2748,-8.2667 3.8966,-22.7718 -7.9629,-34.1913 -15.7423,-15.1585 -39.9361,-22.4569 -82.7519,-24.9632 -31.8902,-1.8668 -42.5344,-4.4228 -55.913,-13.4259 -10.1094,-6.8031 -14.0038,-6.8213 -14.0038,-0.065 0,9.7286 7.2884,20.8997 19.2841,29.557 9.6727,6.9809 16.31,8.6021 46.7047,11.4083 39.4698,3.6441 52.1863,8.6537 63.4228,24.9853 9.2057,13.3802 22.7763,16.2904 31.22,6.6953 z m 128.0936,-56.9571 c 5.7274,-11.8079 6.4866,-27.7788 1.6844,-35.4309 -1.9856,-3.1641 -4.7595,-5.7527 -6.1641,-5.7527 -4.5047,0 -10.4263,18.8658 -10.609,33.7991 -0.2626,21.4621 6.6252,24.833 15.0887,7.3845 z m -390.9453,-48.3148 c 2.6772,-1.258 4.8676,-2.7764 4.8676,-3.3742 0,-0.5978 -6.1342,-2.0628 -13.6313,-3.2557 -27.6274,-4.3957 -42.7202,-15.2173 -61.6357,-44.1927 -5.5662,-8.5267 -12.047,-17.5703 -14.4017,-20.0969 -5.5878,-5.9955 -3.48,-7.7687 12.553,-10.5608 24.4354,-4.2553 43.8043,0.1821 69.2094,15.8558 7.7541,4.7839 14.6964,8.3283 15.4274,7.8765 5.4256,-3.3532 -8.4302,-23.9306 -23.6658,-35.1465 -15.9101,-11.7122 -24.8547,-14.1436 -52.0021,-14.135 -20.5495,0.011 -24.5505,0.5354 -37.4091,4.9449 -7.9192,2.7157 -15.8691,6.5627 -17.6665,8.5488 -5.6136,6.2031 -3.9134,15.3286 6.4312,34.5178 24.7735,45.9547 50.2713,63.4568 90.2404,61.9424 9.2485,-0.3506 19.0059,-1.6665 21.6832,-2.9244 z m 451.5969,-21.2543 c 38.4045,-11.8619 66.0265,-32.7573 78.4945,-59.379 4.5603,-9.7373 4.8989,-12.0274 4.8203,-32.5986 -0.072,-18.8107 -0.659,-23.3853 -3.9197,-30.5333 -2.1093,-4.6242 -4.5333,-8.4077 -5.3865,-8.4077 -0.8531,0 -2.5264,4.3575 -3.7183,9.6832 -5.2138,23.2981 -21.1663,44.043 -41.5751,54.065 -13.3056,6.5338 -33.7576,10.6916 -55.9437,11.3733 -9.2485,0.2842 -18.8877,0.6233 -21.4203,0.7536 l -4.6049,0.2369 8.5179,16.3729 c 4.7485,9.1274 9.8022,22.0518 11.4202,29.2057 l 2.9023,12.8328 h 9.3712 c 5.154,0 14.623,-1.6221 21.0421,-3.6048 z m -302.2183,-22.5961 c 14.2914,-7.3435 25.4134,-25.7554 25.4134,-42.071 0,-8.9498 -4.6248,-12.9636 -18.1989,-15.795 -21.3402,-4.4513 -28.5853,-12.9565 -28.6567,-33.6411 -0.035,-10.2903 0.9058,-14.3942 5.5548,-24.2139 3.0787,-6.503 8.9404,-16.2512 13.0261,-21.6626 9.5992,-12.7141 8.7539,-16.0964 -3.6555,-14.6267 -9.973,1.1811 -37.2371,12.8737 -49.4025,21.187 -15.1311,10.3398 -28.0721,24.9661 -35.086,39.6552 -6.1883,12.9601 -6.5993,14.8691 -6.5944,30.6368 0,15.1756 0.5223,17.8322 5.3101,27.2419 9.0853,17.8563 22.5888,29.2623 42.476,35.8784 11.0924,3.6901 40.5757,2.1578 49.8136,-2.589 z m -902.808,407.6531 c -1.5921,-2.4298 -7.8567,-6.9001 -13.9214,-9.9341 -14.1062,-7.0566 -17.222,-9.8896 -17.222,-15.6592 0,-6.644 3.0956,-8.93 12.0929,-8.93 15.4092,0 26.8482,13.0587 26.8482,30.6497 0,9.5079 -3.0977,11.0467 -7.7977,3.8736 z m 45.6952,-8.415 c 1.5858,-12.4597 8.677,-26.6176 16.6046,-33.1523 17.7768,-14.653 39.5916,3.6292 22.9374,19.223 -6.8699,6.4324 -34.4337,23.222 -38.1241,23.222 -2.1074,0 -2.3763,-1.7624 -1.4179,-9.2927 z m 1135.6427,-528.6789 c -5.3545,-1.7752 -13.7179,-5.0639 -18.5855,-7.3083 -5.203,-2.399 -13.9563,-4.4946 -21.2406,-5.085 -16.8897,-1.369 -16.4258,-3.9689 3.5401,-19.8402 19.7583,-15.7062 30.6106,-20.8687 46.7057,-22.218 10.517,-0.8818 13.4291,-0.4627 19.777,2.846 9.2691,4.8313 13.2117,9.5672 15.9088,19.1092 4.0324,14.2669 -1.5862,26.4696 -14.9906,32.5576 -9.0386,4.105 -18.6045,4.0863 -31.1149,-0.061 z m 20.1422,-27.0822 c 1.4885,-2.3716 1.2155,-3.7723 -1.2075,-6.1952 -2.3726,-2.3727 -6.0088,-3.1308 -15.0153,-3.1308 -10.0584,0 -13.2447,0.816 -20.7348,5.3101 l -8.8503,5.3102 12.3904,1.0523 c 21.1823,1.7992 31.2597,1.0916 33.4175,-2.3466 z m -122.2238,-50.1908 c -0.6053,-1.5774 2.0619,-9.1439 6.0834,-17.258 3.9387,-7.9469 8.4887,-18.2102 10.111,-22.8071 4.0187,-11.3865 16.1294,-24.3181 29.5774,-31.5819 9.8616,-5.3265 12.7325,-6.038 24.4489,-6.0583 9.5699,-0.016 15.1865,0.9256 20.122,3.3755 18.705,9.2844 17.8795,32.4498 -1.8091,50.7712 -11.9386,11.1094 -24.1141,15.4182 -46.0631,16.3008 -14.0058,0.5633 -19.4075,1.6098 -27.784,5.3829 -12.1484,5.4722 -13.252,5.6131 -14.6865,1.8749 z m 53.5502,-35.7586 c 14.2658,-7.2013 18.9795,-16.1315 9.7843,-18.5363 -4.1343,-1.081 -17.2379,4.5552 -22.9343,9.8649 -3.5979,3.3536 -10.8905,15.3293 -10.8905,17.8841 0,1.3986 12.5371,-3.4058 24.0405,-9.2127 z m -151.3469,31.0447 c -0.8501,-2.1904 -4.7339,-9.4103 -8.6309,-16.0442 -8.6358,-14.7016 -9.9458,-20.9586 -7.3864,-35.2808 4.0695,-22.772 16.8569,-35.686 35.4408,-35.7915 11.7133,-0.066 17.9571,3.4493 23.7763,13.3878 4.5764,7.8162 4.6285,23.1529 0.1074,31.6901 -1.8043,3.4073 -10.2123,13.3732 -18.6841,22.1462 -8.4719,8.7732 -15.9693,17.734 -16.6609,19.9131 -1.6203,5.105 -5.9775,5.0937 -7.9622,-0.02 z m 10.1035,-35.8769 c 6.1817,-12.536 7.3358,-21.5716 2.9691,-23.2474 -5.5451,-2.1277 -14.9796,10.735 -14.9796,20.4227 0,6.1285 2.8015,14.3635 4.8865,14.3635 0.7886,0 3.9944,-5.1925 7.124,-11.5388 z"
       id="path4"
       inkscape:label="Traced Bull" /><g
       id="g3"
       transform="rotate(-45,2995.7064,1301.0788)"
       inkscape:label="Red Group"><circle
         style="display:inline;fill:none;stroke:url(#linearGradient3);stroke-width:226.77165354;stroke-dasharray:none;stroke-opacity:1;paint-order:normal"
         id="path1"
         inkscape:label="Red Circle"
         cy="1547"
         cx="2402"
         r="992.12598" /><path
         style="display:inline;fill:none;stroke:url(#linearGradient5);stroke-width:188.976;stroke-dasharray:none;stroke-opacity:1;paint-order:stroke fill markers"
         d="M 2407.6568,641.29366 V 2441.3927"
         id="path3"
         inkscape:label="Red Diagonal" /></g></g><metadata
     id="metadata1"><rdf:RDF><cc:Work
         rdf:about=""><dc:creator><cc:Agent><dc:title>doitpoorly</dc:title></cc:Agent></dc:creator><dc:title>No Bullshit</dc:title><dc:publisher><cc:Agent><dc:title>https://goude.se</dc:title></cc:Agent></dc:publisher><dc:contributor><cc:Agent><dc:title>All the artists whose works were stolen to train ChatGPT.</dc:title></cc:Agent></dc:contributor><dc:description>White circular field with red border and diagonal bar enclosing a black bull pictogram.</dc:description></cc:Work></rdf:RDF></metadata></svg>
