<svg xmlns="http://www.w3.org/2000/svg" xmlns:xlink="http://www.w3.org/1999/xlink" xml:space="preserve" width="700mm" height="700mm" viewBox="0 0 2645.669 2645.669">
  <title>No Bullshit</title>
  <defs>
    <linearGradient id="c">
      <stop offset="0" style="stop-color:#fff;stop-opacity:1"/>
    </linearGradient>
    <linearGradient id="b">
      <stop offset="0" style="stop-color:#000;stop-opacity:1"/>
    </linearGradient>
    <linearGradient id="a">
      <stop offset="0" style="stop-color:#e42b38;stop-opacity:1"/>
    </linearGradient>
    <linearGradient xlink:href="#a" id="f" x1="1501.45" x2="3302.55" y1="1547" y2="1547" gradientUnits="userSpaceOnUse"/>
    <linearGradient xlink:href="#b" id="e" x1="1682.531" x2="3054.96" y1="1494.486" y2="1494.486" gradientTransform="translate(202.967 222.564)scale(1.07325)" gradientUnits="userSpaceOnUse"/>
    <linearGradient xlink:href="#a" id="g" x1="2327" x2="2477" y1="1547" y2="1547" gradientTransform="translate(5.657 -5.657)" gradientUnits="userSpaceOnUse"/>
    <linearGradient xlink:href="#c" id="d" x1="-295.473" x2="1504.626" y1="3284.207" y2="3284.207" gradientUnits="userSpaceOnUse"/>
  </defs>
  <g transform="translate(-1426.95 -571.95)">
    <circle cx="604.576" cy="3284.207" r="900.049" style="display:inline;fill:url(#d);fill-opacity:1;stroke:none;stroke-width:0;stroke-dasharray:none;stroke-opacity:1;paint-order:stroke fill markers" transform="rotate(-45)"/>
    <path d="M2766.297 2290.877c-64.745-1.148-170.227-4.357-199.13-6.058-102.539-6.034-177.637-13.402-233.015-22.86-19.766-3.377-20.323-3.379-33.377-.09-19.168 4.83-46.905 7.063-87.736 7.063-83.184 0-142.649-13.053-158.984-34.897-4.245-5.677-5.639-17.74-2.98-25.795 2.515-7.621 16.502-21.045 27.491-26.383 6.986-3.394 8.256-4.852 9.162-10.519 2.215-13.849 12.463-23.986 31.055-30.718 10.551-3.82 10.992-4.235 14.571-13.712 4.4-11.65 8.145-16.491 18.63-24.083 25.284-18.306 69.758-16.065 89.769 4.524 4.288 4.412 8.972 11.607 10.67 16.39l3.028 8.524 9.98.722c22.314 1.614 40.654 17.087 40.654 34.299 0 8.301 1.091 9.526 12.39 13.895 10.513 4.066 25.823 15.72 29.18 22.21 1.611 3.117 2.681 9.913 2.681 17.035v11.85l12.833-1.131c7.058-.622 26.174-1.66 42.481-2.305 22.747-.901 29.648-1.717 29.648-3.506 0-1.282-2.355-11.529-5.234-22.771-7.283-28.438-14.093-40.352-38.849-67.965-21.867-24.392-30.259-37.918-30.259-48.776 0-5.363 1.566-7.879 10.26-16.484 5.644-5.585 11.441-12.034 12.884-14.33l2.622-4.175 12.238 3.78c6.731 2.08 19.453 4.95 28.271 6.38 23.507 3.813 64.709 3.312 64.709-.788 0-.654-8.563-2.617-19.028-4.362-50.516-8.421-79.854-16.555-97.034-26.9-23.045-13.877-39.192-31.373-52.345-56.716l-7.713-14.863-16.815 1.089c-52.005 3.366-91.437-28.305-97.777-78.531-1.633-12.94-1.456-20.224 1-41.112 2.955-25.123 2.948-25.464-.672-32.942-4.482-9.26-15.053-14.261-25.936-12.272-14.14 2.585-18.287 8.378-23.678 33.079-1.916 8.779-5.799 20.548-8.628 26.153-6.027 11.94-21.218 26.593-34.394 33.176-23.31 11.648-27.508 27.66-12.866 49.08 8.373 12.25 5.733 14.95-11.667 11.928-17.814-3.094-37.937-14.099-50.667-27.707-17.292-18.485-25.019-37.321-24.982-60.9.095-60.867 54.928-107.687 136.81-116.817 42.575-4.747 70.903 1.357 90.613 19.525 19.095 17.601 23.188 35.693 18.415 81.398-4.478 42.87 7.068 63.563 35.465 63.563h10.91l-1.416-11.063c-1.946-15.214-1.272-52.916 1.197-66.835 4.204-23.71 15.948-54.75 29.75-78.632 57.685-99.808 160.642-193.403 276.752-251.586 73.36-36.76 143.304-56.159 211.449-58.643 44.113-1.608 79.351 4.213 114.883 18.978 26.21 10.891 53.997 27.585 53.979 32.429 0 1.126-5.91 5.077-13.124 8.78-15.245 7.826-33.574 23.907-41.723 36.606-11.564 18.022-15.432 41.986-9.637 59.704 2.83 8.653 10.172 17.13 13.798 15.933 1.308-.433 2.328-8.718 2.902-23.586.833-21.566 1.237-23.632 6.846-35.013 13.804-28.011 47.748-52.47 91.568-65.981 14.571-4.493 18.08-4.863 46.73-4.934 31.439-.077 38.941 1.245 38.941 6.863 0 1.318-5.784 7.454-12.854 13.634-25.348 22.16-43.787 46.737-43.787 58.364 0 4.715.201 4.82 5.752 3.024 3.164-1.025 11.329-3.382 18.143-5.239 52.962-14.428 127.36.16 182.29 35.744l16.279 10.545h32.94c18.116 0 37.16-.896 42.319-1.991 22.474-4.773 41.94-20.594 49.195-39.983 5.83-15.582 8.01-35.254 5.554-50.127-1.14-6.905-1.613-13.301-1.05-14.213 3.052-4.937 9.733-.915 25.915 15.6 13.85 14.134 18.22 19.98 24.148 32.303 9.641 20.041 12.883 33.062 13 52.216.188 30.406-8.754 51.99-30.56 73.767-22.542 22.512-51.857 34.53-94.857 38.89-18.967 1.923-20.165 2.274-19.667 5.762.418 2.925 3.34 4.61 13.741 7.927 11.109 3.542 14.698 5.736 22.554 13.783 15.362 15.734 30.632 27.544 41.103 31.79 5.425 2.2 10.089 5.066 10.362 6.367.558 2.654-19.71 18.553-30.588 23.993-13.575 6.79-25.595 9.242-45.297 9.242h-18.99l-7.081 12.833c-7.953 14.413-14.841 21.662-27.677 29.127-7.42 4.316-9.456 6.727-13.207 15.645-3.833 9.11-4.433 13.187-4.414 30.012.026 23.632 3.214 32.207 16.536 44.479 10.783 9.932 13.204 16.614 12.123 33.458-1.034 16.108-5.932 25.026-21.276 38.74-13.697 12.24-34.385 22.68-55.331 27.918-21.186 5.3-66.467 5.749-89.128.885-38.688-8.303-66.101-26.33-77.472-50.945-4.2-9.091-5.29-10.128-13.364-12.71-8.498-2.717-8.891-2.689-11.767.858-9.955 12.28-15.165 17.48-28.761 28.702-8.342 6.885-18.896 15.09-23.453 18.234-5.993 4.135-8.287 6.897-8.287 9.98 0 6.339 8.152 33.287 13.912 45.991 3.956 8.724 35.378 57.208 53.192 82.074 1.547 2.16 6.397 5.616 10.778 7.68 38.563 18.167 67.823 45.675 77.468 72.83 1.658 4.67 3.501 8.49 4.096 8.49.594 0 2.529-1.601 4.3-3.559 2.717-3.001 2.924-4.526 1.325-9.735-1.796-5.852-1.675-6.176 2.303-6.176 7.496 0 43.713 5.437 60.954 9.15 75.052 16.167 2.901 32.753-183.192 42.111-66.936 3.366-191.13 5.462-255.771 4.315m-19.65-24.385c2.54-3.06.778-7.967-7.451-20.76-8.025-12.475-14.787-18.812-17.345-16.255-2.29 2.29 9.938 29.728 15.909 35.699 4.393 4.392 6.122 4.648 8.888 1.316m355.516-2.216c6.25-1.675 4.902-7.64-4.87-21.555-7.708-10.975-19.217-21.58-23.42-21.58-2.631 0-1.303 5.056 3.958 15.057 2.924 5.559 6.565 14.401 8.091 19.65 2.469 8.492 3.297 9.541 7.516 9.52 2.608-.013 6.535-.505 8.725-1.092m-91.446-6.936c-19.468-9.133-27.878-16.702-30.991-27.894-1.406-5.055-3.1-13.571-3.763-18.926-1.56-12.589-5.619-23.185-13.75-35.894-9.908-15.49-18.75-24.184-42.062-41.363l-21.265-15.67-30.309-50.446c-16.67-27.746-39.998-66.377-51.84-85.848-11.842-19.47-26.001-43.034-31.465-52.363-10.724-18.31-14.537-22.7-17.307-19.93-1.115 1.116 1.39 9.563 7.118 23.995 14.16 35.678 20.783 49.033 31.909 64.347 15.149 20.85 26.352 39.887 45.243 76.879 9.198 18.01 19.422 36.395 22.72 40.855 3.433 4.643 12.325 12.37 20.799 18.074 9.464 6.371 18.725 14.616 25.682 22.866 5.985 7.096 17.791 20.868 26.237 30.603 17.092 19.7 17.812 21.033 21.34 39.469 4.33 22.628 11.835 29.785 36.275 34.588 19.357 3.804 19.922 3.456 5.429-3.342m-232.993-10.3c1.61-4.555 1.295-6.163-3.422-17.462-1.193-2.858 1.895-3.1 45.214-3.54 30.8-.313 46.706-1.106 47.12-2.35.344-1.033-3.349-6.83-8.206-12.881-11.542-14.383-13.297-21.1-10.711-40.998 1.524-11.727 1.513-17.39-.044-23.174-2.402-8.92-13.267-30.864-27.088-54.708-11.337-19.56-7.223-18.382-44.555-12.754-49.219 7.42-109.694 10.18-113.83 5.195-1.387-1.67.433-5.204 7.063-13.718 13.037-16.742 24.039-36.285 28.378-50.41 4.924-16.024 5.24-41.397.707-56.535-12.254-40.911-65.182-107.929-98.774-125.066-3.897-1.988-7.514-3.188-8.036-2.666-1.765 1.766 16.123 34.707 25.112 46.243 4.91 6.3 15.56 19.225 23.668 28.72 19.43 22.753 27.448 35.01 32.4 49.537 5.464 16.025 5.452 37.308-.03 53.572-6.217 18.45-22.389 49.321-33.852 64.621-9.496 12.675-10.598 15.026-10.601 22.605 0 5.964 1.634 11.705 5.549 19.47 17.62 34.947 35.416 50.38 77.16 66.914 20.5 8.12 31.36 14.95 40.034 25.179 9.187 10.833 18.029 26.293 19.735 34.509 1.405 6.763 4.56 6.627 7.009-.302zm-162.921-14.837c-4.403-9.491-9.971-20.618-12.375-24.725-7.834-13.386-23.97-28.8-45.24-43.216-28.195-19.11-42.238-35.198-42.238-48.39 0-2.776 3.332-9.394 8.079-16.046 4.443-6.226 9.62-15.708 11.505-21.07 6.55-18.638 3.151-40.979-5.528-36.334-2.147 1.15-3.435 3.7-3.435 6.805 0 13.979-11.053 33.741-30.656 54.812-10.262 11.031-10.455 11.427-9.654 19.758.637 6.63 3.074 11.895 11.071 23.914 8.97 13.482 12.067 16.58 24.73 24.75 17.075 11.015 26.456 21.112 35.362 38.06l6.51 12.39h36.754l4.98 9.243c3.925 7.285 14.102 17.307 17.574 17.307.31 0-3.037-7.766-7.44-17.258m-485.23-39.723c8.447-4.334 13.28-5.65 20.748-5.65 7.467 0 12.3 1.316 20.748 5.65 12.847 6.592 19.028 7.165 21.781 2.02 4.21-7.867-9.903-21.958-27.362-27.32-12.919-3.967-26.788-3.417-37.305 1.481-15.09 7.027-24.465 21.099-18.219 27.345 3.344 3.345 7.77 2.549 19.61-3.526m136.062-5.721c2.982-6.545-3.527-18.689-12.816-23.91-9.13-5.131-24.493-4.57-30.165 1.102-3.313 3.313-3.36 3.777-.653 6.484 1.603 1.603 5.048 2.932 7.656 2.953 6.828.056 18.076 5.717 24.1 12.129 6.248 6.65 9.27 6.966 11.878 1.242m-86.982-54.341c3.401-1.095 12.946-2.489 21.212-3.098 12.28-.904 15.133-1.664 15.608-4.157.766-4.02-8.788-9.784-18.671-11.266-15.108-2.266-33.499 8.505-30.017 17.579 1.326 3.455 3.52 3.629 11.868.942m969.974-113.735c0-1.343-4.348-5.725-9.662-9.737s-11.885-11.077-14.603-15.7c-4.533-7.711-4.941-9.894-4.941-26.395 0-9.894-.487-18.479-1.082-19.077-2.362-2.378-10.6 2.821-15.858 10.006-5.244 7.168-5.5 8.245-4.598 19.404 1.121 13.882 4.336 20.917 12.243 26.796 17.271 12.838 38.5 20.945 38.5 14.703m-191.491-20.215c1.59-10.792-21.431-84.165-29.049-92.582-5.97-6.597-8.382-4.349-7.322 6.824 1.574 16.587 23.046 79.769 30.097 88.561 2.512 3.134 5.602 1.754 6.274-2.803m287.935 1.295c9.385-2.898 13.848-5.592 21.427-12.932 9.199-8.91 9.572-9.635 9.572-18.6 0-7.951-.764-10.094-5.174-14.503-7.75-7.75-17.79-6.876-28.014 2.436-5.29 4.817-5.025 8.011.849 10.245 12.715 4.834 9.621 17.796-6.903 28.925-4.694 3.16-8.006 6.274-7.361 6.919 1.688 1.688 2.497 1.559 15.604-2.49m-53.281-17.808c5.33-2.428 8.94-10.41 7.245-16.013-1.854-6.127-9.488-13.505-16.3-15.753-15.882-5.241-28.377 5.677-23.479 20.518 2.233 6.764 5.301 8.253 5.301 2.572 0-8.722 12.411-5.503 17.157 4.449 3.287 6.892 3.776 7.097 10.076 4.227m-186.537-56.614c0-1.085-3.853-6.461-8.563-11.948-28.216-32.87-51.944-84.8-56.608-123.892-1.84-15.413-3.562-19.124-8.074-17.393-4.338 1.664-8.03 10.715-10.02 24.56-5.572 38.775 15.625 86.561 50.832 114.593 15.36 12.231 32.433 19.642 32.433 14.08m239.073-15.79c3.017-1.615 3.43-3.874 3.483-19.029.033-9.457.811-25.537 1.73-35.733 1.838-20.407.739-24.125-5.471-18.505-6.255 5.66-11.958 16.981-14.861 29.5-3.567 15.38-8.61 23.69-16.958 27.95-3.707 1.89-7.184 4.155-7.726 5.033-1.759 2.845 4.15 6.014 17.185 9.218 15.299 3.76 18.149 3.957 22.618 1.565m-129.965-58.07c5.005-1.73 13.132-6.22 18.06-9.978l8.958-6.832-10.593-11.95-10.594-11.948-8.505 8.505c-12.482 12.482-24.862 13.88-34.828 3.933-4.443-4.434-4.695-5.502-3.737-15.802 1.158-12.457 3.152-10.819-17.423-14.318-5.84-.993-12.796-2.354-15.455-3.024-4.188-1.055-5.098-.54-6.8 3.85-2.564 6.618-.963 19.901 3.422 28.4 6.13 11.878 24.314 26.551 37.666 30.393 9.836 2.83 29.87 2.212 39.829-1.23m-1049.827-9.858c1.538-2.348 4.766-9.716 7.173-16.373 4.311-11.923 14.688-28.722 25.808-41.778 4.187-4.917 5.154-7.181 3.691-8.644-4.912-4.913-35.03 20.584-41.563 35.185-3.884 8.68-5.037 22.255-2.633 31.01 1.646 5.995 3.872 6.173 7.524.6m1221.706-10.845c8.777-3.667 12.725-7.441 16.592-15.863 3.861-8.409 4.484-22.125 1.005-22.125-1.278 0-4.663 2.469-7.523 5.486s-8.663 7.89-12.898 10.827c-4.258 2.953-8.807 7.992-10.178 11.272-3.057 7.318-3.067 6.973.303 10.344 3.449 3.448 4.575 3.454 12.699.06m-109.735-21.27c7.275-8.266 3.897-22.772-7.963-34.191-15.742-15.159-39.936-22.457-82.752-24.963-31.89-1.867-42.534-4.423-55.913-13.426-10.11-6.803-14.004-6.821-14.004-.065 0 9.728 7.289 20.9 19.284 29.557 9.673 6.98 16.31 8.602 46.705 11.408 39.47 3.644 52.186 8.654 63.423 24.985 9.206 13.38 22.776 16.29 31.22 6.696zm128.094-56.957c5.727-11.808 6.486-27.779 1.684-35.43-1.986-3.165-4.76-5.753-6.164-5.753-4.505 0-10.426 18.865-10.61 33.799-.262 21.462 6.626 24.833 15.09 7.384m-390.946-48.315c2.677-1.258 4.868-2.776 4.868-3.374s-6.134-2.063-13.631-3.256c-27.628-4.395-42.72-15.217-61.636-44.192-5.566-8.527-12.047-17.57-14.402-20.097-5.588-5.996-3.48-7.769 12.553-10.561 24.436-4.255 43.804.182 69.21 15.856 7.754 4.784 14.696 8.328 15.427 7.876 5.426-3.353-8.43-23.93-23.666-35.146-15.91-11.712-24.855-14.144-52.002-14.135-20.55.01-24.55.535-37.41 4.945-7.918 2.715-15.868 6.562-17.666 8.549-5.613 6.203-3.913 15.328 6.432 34.517 24.773 45.955 50.27 63.457 90.24 61.943 9.249-.35 19.006-1.667 21.683-2.925m451.597-21.254c38.405-11.862 66.027-32.757 78.495-59.379 4.56-9.737 4.899-12.027 4.82-32.599-.072-18.81-.66-23.385-3.92-30.533-2.11-4.624-4.533-8.408-5.386-8.408s-2.527 4.358-3.719 9.684c-5.213 23.298-21.166 44.043-41.575 54.065-13.305 6.533-33.757 10.691-55.943 11.373-9.249.284-18.888.623-21.42.754l-4.606.236 8.518 16.373c4.749 9.128 9.803 22.052 11.42 29.206l2.903 12.833h9.371c5.154 0 14.623-1.622 21.042-3.605m-302.218-22.596c14.291-7.344 25.413-25.755 25.413-42.071 0-8.95-4.625-12.964-18.199-15.795-21.34-4.451-28.585-12.957-28.656-33.641-.035-10.29.905-14.394 5.554-24.214 3.08-6.503 8.94-16.251 13.027-21.663 9.599-12.714 8.753-16.096-3.656-14.626-9.973 1.18-37.237 12.873-49.402 21.187-15.132 10.34-28.073 24.966-35.086 39.655-6.189 12.96-6.6 14.869-6.595 30.637 0 15.175.522 17.832 5.31 27.242 9.086 17.856 22.589 29.262 42.476 35.878 11.093 3.69 40.576 2.158 49.814-2.59m-902.808 407.653c-1.592-2.43-7.857-6.9-13.922-9.934-14.106-7.057-17.222-9.89-17.222-15.66 0-6.643 3.096-8.93 12.093-8.93 15.41 0 26.849 13.06 26.849 30.65 0 9.508-3.098 11.047-7.798 3.874m45.695-8.415c1.586-12.46 8.677-26.618 16.605-33.152 17.776-14.653 39.591 3.629 22.937 19.223-6.87 6.432-34.434 23.222-38.124 23.222-2.107 0-2.376-1.763-1.418-9.293m1135.643-528.679c-5.355-1.775-13.718-5.064-18.586-7.308-5.203-2.4-13.956-4.495-21.24-5.085-16.89-1.37-16.426-3.97 3.54-19.84 19.758-15.707 30.61-20.87 46.705-22.218 10.517-.882 13.43-.463 19.777 2.846 9.27 4.83 13.212 9.567 15.91 19.109 4.032 14.267-1.587 26.47-14.991 32.557-9.039 4.105-18.605 4.087-31.115-.06zm20.142-27.082c1.488-2.372 1.215-3.772-1.208-6.195-2.372-2.373-6.008-3.131-15.015-3.131-10.058 0-13.245.816-20.735 5.31l-8.85 5.31 12.39 1.053c21.183 1.799 31.26 1.091 33.418-2.347m-122.224-50.19c-.605-1.578 2.062-9.145 6.084-17.259 3.938-7.947 8.488-18.21 10.11-22.807 4.02-11.386 16.13-24.318 29.578-31.582 9.862-5.326 12.732-6.038 24.449-6.058 9.57-.016 15.186.925 20.122 3.375 18.705 9.285 17.88 32.45-1.81 50.772-11.938 11.109-24.113 15.418-46.062 16.3-14.006.564-19.408 1.61-27.784 5.383-12.149 5.472-13.252 5.613-14.687 1.875m53.55-35.76c14.266-7.2 18.98-16.131 9.785-18.536-4.135-1.08-17.238 4.555-22.935 9.865-3.598 3.354-10.89 15.33-10.89 17.884 0 1.399 12.537-3.406 24.04-9.212m-151.347 31.045c-.85-2.19-4.733-9.41-8.63-16.044-8.636-14.702-9.946-20.959-7.387-35.28 4.07-22.773 16.857-35.687 35.44-35.792 11.714-.066 17.958 3.449 23.777 13.388 4.577 7.816 4.629 23.152.108 31.69-1.805 3.407-10.213 13.373-18.684 22.146s-15.97 17.734-16.661 19.913c-1.62 5.105-5.978 5.094-7.963-.02zm10.104-35.877c6.182-12.536 7.336-21.571 2.969-23.247-5.545-2.128-14.98 10.735-14.98 20.423 0 6.128 2.802 14.363 4.887 14.363.789 0 3.994-5.192 7.124-11.539" style="fill:url(#e);fill-opacity:1;stroke-width:1.07325"/>
    <g transform="rotate(-45 2995.706 1301.079)">
      <circle cx="2402" cy="1547" r="992.126" style="display:inline;fill:none;stroke:url(#f);stroke-width:226.77165354;stroke-dasharray:none;stroke-opacity:1;paint-order:normal"/>
      <path d="M2407.657 641.294v1800.099" style="display:inline;fill:none;stroke:url(#g);stroke-width:188.976;stroke-dasharray:none;stroke-opacity:1;paint-order:stroke fill markers"/>
    </g>
  </g>
</svg>
