<svg xmlns="http://www.w3.org/2000/svg" width="5cm" height="5cm" viewBox="0 0 188.976 188.976">
  <path d="M152.873 63.555q-.871-.069-1.736.004c-3.461.286-6.766 2.23-8.532 5.244-1.945 3.32-1.151 8.43 1.967 12.113.982 1.16 1.522 1.822 1.801 2.725.279.902.287 1.975.287 3.988v3.182l.694.175q.903.224 1.82.389h.004c1.855.322 3.863.172 6.92-.535l1.453-.334-.02-2.932c-.024-3.744.023-3.907 2.012-7.062 2.123-3.368 2.668-4.883 2.658-7.356-.014-3.987-3.48-8.256-7.603-9.314a10 10 0 0 0-1.725-.287m-39.969 18.873c-.131.017-.24.027-.498.076-.378.07-.853.17-1.342.277-.977.216-2.023.474-2.44.614-5.366 1.787-10.764 7.94-13.093 15.03-.818 2.49-1.127 3.14-2.463 5.198-.54.834-1.195 1.936-1.433 2.404-.23.454-.425.778-.62.994a.8.8 0 0 1-.337.249.5.5 0 0 1-.471-.108c-.092-.092-.09-.162-.094-.203s0-.068.002-.094a1 1 0 0 1 .03-.15 5 5 0 0 1 .12-.402c.109-.32.267-.74.454-1.19 1.313-3.173 1.887-8.526 1.387-13.172v-.002a167 167 0 0 0-.487-4.156c-.042-.31-.073-.484-.105-.666-.116.142-.235.29-.395.5-.417.55-.958 1.298-1.512 2.084-1.106 1.572-2.275 3.331-2.542 3.865-2.606 5.192-3.133 10.782-1.577 16.826.53 2.06.733 3.64.414 5.983-.318 2.343-1.145 5.453-2.66 10.672h-.002c-.101.347-.21.674-.308.927q-.074.19-.139.323a1 1 0 0 1-.07.123c-.026.038-.041.078-.133.134l-.08.036-.104.01-.095-.024-.069-.04c-.072-.056-.085-.098-.097-.126-.026-.056-.03-.086-.038-.123a3 3 0 0 1-.033-.267c-.019-.22-.034-.53-.047-.92a88 88 0 0 1-.029-3.084c.024-4.473-.045-5.191-.82-8.32-.518-2.093-2.566-6.41-4.157-8.766-.105.182-.247.51-.406 1.021-.342 1.098-.758 2.885-1.22 5.283-1.038 5.37.123 12.838 2.744 17.666 1.941 3.576 2.36 5.367 2.006 8.643-.113 1.047-.211 3.95-.21 6.383a88 88 0 0 1-.046 3.248q-.023.584-.057.91a2 2 0 0 1-.041.27.5.5 0 0 1-.041.12c-.012.026-.025.057-.064.096a.33.33 0 0 1-.225.096.5.5 0 0 1-.215-.05.5.5 0 0 1-.183-.178c-.084-.134-.125-.28-.182-.526-.115-.49-.265-1.37-.543-3.031a56 56 0 0 0-.395-2.106c-.128-.614-.251-1.11-.304-1.253-.925-2.532-1.274-3.343-1.524-3.686-.219-.301-.828-1.296-1.414-2.297-1.108-1.89-3.768-5.112-5.201-6.312h-.002l-.531-.446-.045.213c-.125.592-.167 2.14-.111 3.828.055 1.689.199 3.548.404 4.873.893 5.763 2.644 9.506 6.474 13.838 1.907 2.156 3.302 3.906 3.74 4.764.234.455.51 1.355.774 2.346.263.99.496 2.042.582 2.742.211 1.73 1.942 6.904 3.04 9.025.26.503.415.913.446 1.24.016.164.029.359-.166.51a.44.44 0 0 1-.328.078.7.7 0 0 1-.248-.1c-.086-.053-.097-.085-.127-.122a2 2 0 0 1-.093-.13 7 7 0 0 1-.227-.372c-.173-.3-.383-.692-.594-1.112-3.048-6.078-5.75-9.608-9.47-12.406-.819-.615-2.129-1.436-3.249-2.07a22 22 0 0 0-1.45-.764c-.121-.056-.197-.083-.284-.117.008.07.01.12.026.21.056.344.162.824.304 1.388a54 54 0 0 0 1.196 3.99c2.564 7.506 6.662 12.646 12.574 15.807 3.829 2.048 5.488 3.596 8.777 8.199 1.228 1.72 2.869 3.865 3.62 4.736.386.45.738.877.995 1.209q.195.25.31.42.058.084.097.152l.037.075c.012.028.03.054.03.14a.5.5 0 0 1-.048.238.43.43 0 0 1-.26.215c-.22.054-.342-.035-.49-.125-.295-.179-.693-.518-1.31-1.08-1.245-1.13-4.946-4.092-6.1-4.883-2.742-1.879-7.453-3.472-11.203-3.777l-1.02-.082 1.088 1.584c5.918 8.635 10.254 11.823 17.979 13.236 5.59 1.022 6.927 1.529 10.841 4.106q2.112 1.389 4.229 2.77l3.09 2.011c.532.347.914.624 1.164.84.125.108.218.196.289.297a.45.45 0 0 1 .088.193.4.4 0 0 1-.111.334.37.37 0 0 1-.247.094.8.8 0 0 1-.185-.014 3 3 0 0 1-.44-.121q-.518-.179-1.416-.605c-2.527-1.205-6.16-2.6-7.986-3.079-3.043-.793-8.803-.778-13.547.073l-.049.008.846.781c2.816 2.6 8.589 5.937 12.58 7.268 3.658 1.218 9.952 1.556 13.158.728 2.256-.582 5.428-.512 7.461.178 4.957 1.677 7.442 2.552 8.274 2.922q1.343.569 2.709 1.078a18 18 0 0 1 1.533.64c.173.087.305.163.41.243.053.04.1.08.145.14a.37.37 0 0 1 .074.305.38.38 0 0 1-.21.252.6.6 0 0 1-.198.053 2.5 2.5 0 0 1-.47 0 17 17 0 0 1-1.62-.233c-1.655-.299-5.927-.344-7.559-.082-2.505.403-5.773 1.726-8.492 3.451l-.393.248.237.121h.002c2.055 1.047 6.22 2.125 8.988 2.313 2.085.143 4.12-.215 8.045-1.43 3.164-.978 4.91-1.492 6.227-1.66 1.316-.167 2.194.034 3.486.45.194.062.34.096.488.232a.44.44 0 0 1 .137.351.46.46 0 0 1-.164.29c-.14.128-.317.22-.586.351-.27.13-.626.286-1.088.482-2.414 1.027-6.937 3.81-11.22 6.926a66 66 0 0 0-3.499 2.746c-.507.427-.94.81-1.24 1.096a6 6 0 0 0-.3.307c.098.078.225.178.396.302.375.274.898.637 1.472 1.022h.002c.576.386 1.11.737 1.506.99.198.127.36.23.475.299l.02.012.007-.008c.097-.084.237-.21.405-.364.335-.309.787-.736 1.273-1.207 2.77-2.684 6.108-5.298 9.258-7.35 3.15-2.05 6.095-3.542 8.16-3.976h.002l.957-.2a.3.3 0 0 1 .2.028l3.083 1.602c3.157 1.638 5.357 3.02 8 5.021 1.102.834 2.648 2.076 4.014 3.207s2.53 2.128 2.934 2.547c.161.169.342.323.492.43.074.053.14.096.187.119.025.012.01.008.016.01q.047-.02.135-.064c.123-.065.292-.16.49-.278.395-.235.901-.553 1.4-.879.5-.326.994-.66 1.363-.924.185-.132.34-.247.444-.332.02-.016.028-.025.045-.039-.003-.005 0-.004-.004-.01a3 3 0 0 0-.323-.379c-.305-.316-.778-.737-1.373-1.226-1.189-.978-2.863-2.228-4.697-3.52-3.668-2.583-7.995-5.342-10.367-6.459-.281-.132-.485-.233-.64-.367a.48.48 0 0 1-.188-.303c-.026-.154.072-.319.164-.39.184-.143.38-.178.685-.236.306-.06.71-.116 1.23-.178.592-.07 1.038-.083 1.92.129.884.21 2.23.638 4.753 1.45 4.156 1.34 5.421 1.552 8.435 1.411 3.154-.148 6.33-.884 8.899-2.055l.88-.4-2.142-1.084c-3.148-1.59-4.73-2.154-7.094-2.537-2.588-.42-6.455-.338-8.894.187-.305.066-.481.11-.705.034a.4.4 0 0 1-.182-.122.38.38 0 0 1-.078-.26c.016-.162.092-.23.158-.296.267-.267.759-.507 1.469-.754.687-.239 2.765-1.025 4.59-1.734 3.346-1.305 5.413-2.075 6.914-2.524s2.449-.576 3.492-.578c1.144-.001 2.67.158 4.023.416 2.956.564 7.727.56 10.364-.006 3.964-.849 9.252-3.521 13.797-6.998 1.132-.866 1.794-1.482 1.966-1.762.019-.03.014-.027.022-.045-.023-.003-.103-.043-.334-.047a11 11 0 0 1-.711-.062c-.353-.037-.8-.087-1.258-.14-3.574-.427-9.217-.146-11.785.568-1.806.501-6.287 2.29-7.627 3.035-.387.216-.692.364-.935.447a1.1 1.1 0 0 1-.344.07c-.117.002-.292-.043-.385-.191a.8.8 0 0 1-.107-.246.4.4 0 0 1-.016-.152.34.34 0 0 1 .127-.249l.02-.013c29.514-19.895-29.401 19.794.124-.084 29.526-19.879-29.411 19.776.125-.086s-29.422 19.762.125-.084-29.433 19.745.125-.084c29.56-19.83-29.444 19.729.125-.084 29.57-19.813-29.453 19.712.127-.084 29.581-19.797-29.466 19.696.125-.084s-29.477 19.682.125-.082c29.603-19.764-29.488 19.663.125-.084 29.614-19.748-29.499 19.647.125-.084 29.625-19.731-29.508 19.63.127-.084 29.636-19.715-29.52 19.614.125-.084 29.647-19.698-29.532 19.6.125-.082s-29.54 19.581.127-.084c29.668-19.665-29.554 19.565.125-.084 29.68-19.649-29.564 19.55.125-.082q2.715-1.815 5.42-3.647c4.717-3.192 5.615-3.573 11.076-4.681 8.038-1.63 13.573-5.47 18.373-12.752a247 247 0 0 0 1.489-2.287c-.321.011-.761.036-1.248.068-2.815.19-4.84.775-7.891 2.285-3.063 1.517-4.852 2.808-9.555 6.906-.468.409-.798.667-1.045.805a1 1 0 0 1-.183.082c-.065.02-.145.047-.266.006-.121-.04-.223-.194-.234-.293a.5.5 0 0 1 .03-.222c.08-.248.266-.525.573-.948q.461-.635 1.282-1.62c.989-1.187 2.726-3.43 3.843-4.968 3.077-4.23 3.493-4.6 8.34-7.406 2.58-1.494 3.602-2.285 5.715-4.428 3.042-3.085 4.262-4.953 5.941-9.09.64-1.575 1.265-3.55 1.666-5.122.201-.786.345-1.474.409-1.948.02-.153.02-.236.023-.336-.105.051-.214.103-.363.18-.39.201-.91.48-1.461.787-5.92 3.292-8.202 5.716-11.598 12.318q-.793 1.544-1.26 2.348a9 9 0 0 1-.39.629 2 2 0 0 1-.15.191c-.05.054-.082.107-.206.15a.35.35 0 0 1-.273-.019.34.34 0 0 1-.156-.195c-.036-.11-.024-.17-.016-.242a4 4 0 0 1 .13-.565c.14-.481.387-1.2.743-2.168.968-2.633 1.296-3.72 2.227-7.396 1.185-4.68 1.804-5.859 4.85-9.217 3.482-3.844 5.109-7.053 6.472-12.789.806-3.394 1.155-8.37.777-10.717l-.04-.254-.887.739c-3.089 2.573-6.548 7.657-7.467 10.927-.238.847-.694 2.85-1.002 4.416a275 275 0 0 1-.662 3.286c-.038.166-.07.288-.121.398-.026.055-.042.117-.15.19a.36.36 0 0 1-.247.048.33.33 0 0 1-.187-.11c-.07-.079-.084-.135-.102-.194a2 2 0 0 1-.043-.2 7 7 0 0 1-.068-.597c-.08-1.006-.136-2.91-.186-5.963-.064-3.965-.068-6.2.129-7.807.197-1.605.61-2.58 1.326-3.92v-.002c4.276-7.988 4.85-16.298 1.711-24.734v-.002l-.14-.381-.237.424c-3.925 7.037-4.52 9.129-4.697 16.447l-.12 4.889a.3.3 0 0 1-.587.08l-.426-1.383c-.233-.76-.751-2.42-1.148-3.69-2.14-6.832-2.34-9.216-1.157-13.609.66-2.446.667-2.54.672-5.674.005-3.434-.108-4.118-1.246-7.45-.482-1.413-1.745-3.785-2.984-5.778-.62-.997-1.235-1.903-1.74-2.555a8 8 0 0 0-.657-.76c-.119-.115-.14-.12-.177-.146a3.5 3.5 0 0 0-.163.537c-.12.518-.235 1.277-.335 2.178a60 60 0 0 0-.332 6.408c.012 4.363.275 5.765 1.662 8.822.184.406.309.725.375.977.033.126.052.235.048.35s-.04.278-.193.372v.002a.55.55 0 0 1-.488.016 1.1 1.1 0 0 1-.354-.31c-.218-.272-.458-.686-.775-1.305a23 23 0 0 0-1.145-1.906c-1.027-1.518-2.12-3.781-2.869-5.936v-.002c-2.168-6.226-6.309-11.094-11.656-13.729-.634-.312-1.99-.767-3.188-1.101a22 22 0 0 0-1.584-.389 5 5 0 0 0-.386-.058c.014.064.021.11.043.193.08.312.207.741.357 1.213.3.943.695 2.06 1 2.781 1.986 4.689 5.233 8.383 11.043 12.531 2.072 1.48 3.866 2.897 4.754 3.768.497.487 1.43 1.786 2.443 3.29 1.014 1.502 2.072 3.178 2.704 4.335l.002.004a.44.44 0 0 1 .01.377.53.53 0 0 1-.217.25.33.33 0 0 1-.301.027.6.6 0 0 1-.15-.074 2 2 0 0 1-.28-.225 7.5 7.5 0 0 1-.687-.738c-2.295-2.787-5.683-5.106-9.281-6.346-1.023-.352-2.464-.723-3.721-.984a24 24 0 0 0-1.674-.295c-.297-.04-.409-.03-.57-.031.052.111.097.212.191.377.277.484.714 1.16 1.23 1.904 1.033 1.49 2.384 3.269 3.42 4.428 3.404 3.802 5.569 5.242 10.288 6.848 1.625.553 2.554.884 3.175 1.189.622.306.945.61 1.25 1.018.497.663.875 1.318 1.34 2.502s1.028 2.904 1.918 5.755a91 91 0 0 1 1.04 3.52q.17.642.253 1.055c.055.277.085.47.074.642-.005.087.004.193-.136.315a.38.38 0 0 1-.27.08.4.4 0 0 1-.174-.07c-.162-.112-.24-.247-.375-.46-.268-.424-.64-1.137-1.136-2.156-1.992-4.089-4.03-6.104-8.793-8.68-.765-.413-2.078-.962-3.184-1.367a19 19 0 0 0-1.412-.466c-.042-.012-.055-.01-.092-.02l.018.045c.104.249.258.585.447.982.377.794.892 1.829 1.443 2.897 1.103 2.137 2.359 4.435 2.889 5.22 1.914 2.836 4.95 5.477 8.656 7.514 1.538.846 2.79 1.906 3.248 2.873.114.24.176.578.256 1.075.08.496.16 1.129.236 1.851.154 1.444.297 3.247.405 5.01.107 1.763.18 3.485.193 4.773a21 21 0 0 1-.03 1.565 3 3 0 0 1-.06.474.7.7 0 0 1-.066.188.35.35 0 0 1-.309.197.4.4 0 0 1-.316-.16 1 1 0 0 1-.133-.22 2.2 2.2 0 0 1-.156-.57c-.613-4.153-1.885-7.216-4.338-10.46h.002c-1.734-2.291-3.289-3.66-6.021-5.328-.005.061-.014.073-.014.156 0 .418.062 1.088.18 1.908.235 1.642.688 3.902 1.269 6.16 1.17 4.545 2.47 7.012 5.647 10.694.877 1.018 1.813 2.143 2.113 2.55.896 1.218 1.044 3.22.617 5.788s-1.45 5.718-3.031 9.236c-.194.43-.38.856-.528 1.197-.146.342-.258.616-.277.67a.9.9 0 0 1-.197.334c-.088.094-.199.19-.387.19-.176 0-.357-.146-.418-.287a.9.9 0 0 1-.06-.434c.014-.312.105-.706.263-1.19 1.303-3.983.616-10.61-1.484-14.285-.333-.582-1.096-1.737-1.787-2.734a48 48 0 0 0-.924-1.295c-.047-.063-.074-.095-.115-.148-.015.054-.025.083-.041.146-.106.401-.24.962-.373 1.58-1.822 8.453-1.641 12.645.814 18.977.826 2.13 1.192 3.718.983 5.3-.21 1.583-.987 3.12-2.366 5.17-.962 1.433-2.707 3.587-4.222 5.317a42 42 0 0 1-1.973 2.127 6 6 0 0 1-.639.564c-.085.061-.145.113-.28.139a.35.35 0 0 1-.294-.07.36.36 0 0 1-.123-.274c0-.158.043-.228.094-.35q.077-.183.203-.425c.167-.322.395-.714.644-1.106l.002-.002c.95-1.493 2.634-5.475 3.034-7.174h.002c.248-1.053.305-2.956.183-4.962-.122-2.007-.417-4.134-.836-5.684a21 21 0 0 1-.26-1.07c-.037-.178-.044-.276-.064-.403-.283.386-.737 1.107-1.562 2.494-4.017 6.75-4.844 9.382-5.264 16.776-.154 2.71-.424 4.537-1.076 6.023-.653 1.487-1.685 2.603-3.285 3.877-1.147.913-3.34 2.389-5.405 3.692a83 83 0 0 1-2.847 1.726c-.817.469-1.419.793-1.788.908a1.5 1.5 0 0 1-.3.067c-.094.01-.197.026-.332-.072a.4.4 0 0 1-.141-.225.4.4 0 0 1 .018-.197.7.7 0 0 1 .144-.243c.241-.294.713-.675 1.43-1.183 4.297-3.043 6.449-6.793 8.105-14.188.174-.775.332-1.585.446-2.263.114-.679.181-1.244.181-1.446v-.373l-.683.46c-3.402 2.28-7.09 5.67-9.13 8.384-1.85 2.465-2.473 3.692-4.47 8.799-.905 2.314-1.428 3.588-2.023 4.469-.595.88-1.265 1.333-2.34 1.94-.908.511-3.752 1.676-7.05 2.95s-7.01 2.636-9.526 3.46a113 113 0 0 0-4.477 1.593l-2.367.908a.3.3 0 0 1-.201.006l-3.998-1.324c-2.207-.73-4.83-1.678-5.871-2.125-.998-.427-3.786-1.51-6.168-2.396h-.002a91 91 0 0 1-6.213-2.563 37 37 0 0 1-2.227-1.103c-.596-.328-1.024-.595-1.28-.838-.71-.678-1.414-2.143-2.83-5.618-1.733-4.251-3.015-6.42-5.413-9.168-1.245-1.425-6.075-5.707-7.707-6.828l-.866-.595v.295c.001 1.76.72 4.687 1.745 7.515 1.025 2.829 2.365 5.583 3.533 7.035.474.591 1.713 1.726 2.76 2.512l1.365 1.027.433.329.13.097.066.055c.08.07.117.176.12.252a.4.4 0 0 1-.029.18.7.7 0 0 1-.17.248c-.135.131-.244.104-.318.097a1 1 0 0 1-.217-.047 5 5 0 0 1-.572-.222c-.46-.203-1.08-.515-1.816-.916-2.36-1.286-2.978-1.679-5.938-3.793-2.097-1.498-4.33-3.787-5.156-5.338l-.637-1.197a.3.3 0 0 1-.035-.131l-.129-4.336c-.139-4.62-.335-5.903-1.351-8.768-.441-1.24-1.518-3.547-2.621-5.707-1.092-2.136-2.226-4.143-2.754-4.828-.015.035-.014.026-.03.069-.068.186-.156.455-.273.814-.853 2.613-1.441 7.057-1.21 8.88.546 4.27 1.44 6.87 3.165 9.263.633.879.97 1.35 1.127 1.67.04.08.07.151.086.236a.43.43 0 0 1-.049.308.42.42 0 0 1-.25.178.8.8 0 0 1-.2.022c-.146 0-.205-.05-.278-.094a2 2 0 0 1-.23-.166 9 9 0 0 1-.593-.545 37 37 0 0 1-1.627-1.756c-1.203-1.371-2.525-3.005-3.261-4.113-.434-.655-1.372-2.36-2.123-3.852-.824-1.636-1.287-2.753-1.422-3.79-.136-1.038.073-1.967.535-3.163 2.252-5.838 2.407-6.553 2.365-11.055-.018-1.866-.162-4.405-.318-5.593a57 57 0 0 0-.647-3.774 27 27 0 0 0-.328-1.426c-.01-.038-.016-.051-.025-.085-.059.08-.106.139-.178.244-.265.385-.606.92-.963 1.502-.714 1.163-1.49 2.523-1.818 3.238-1.783 3.878-2.366 8.205-1.63 12.033.193.998.33 1.757.409 2.291.04.267.064.478.072.643a1.5 1.5 0 0 1-.002.22c-.006.07-.005.138-.08.243a.36.36 0 0 1-.205.132.35.35 0 0 1-.223-.029c-.1-.05-.135-.104-.177-.158a3 3 0 0 1-.26-.438 33 33 0 0 1-.799-1.76c-1.973-4.581-3.358-9.194-3.533-11.88-.056-.865-.013-1.502.435-2.34.45-.838 1.273-1.89 2.793-3.773 3.222-3.993 4.106-5.549 5.125-9.051.816-2.798 1.546-7.288 1.551-9.457v-.131l-.912.63c-2.6 1.798-6.094 5.798-7.305 8.339-.535 1.124-1.488 4.674-1.802 6.81a2.2 2.2 0 0 1-.155.567 1 1 0 0 1-.132.22.4.4 0 0 1-.317.162.33.33 0 0 1-.205-.076.3.3 0 0 1-.076-.093c-.03-.052-.038-.088-.047-.124a2 2 0 0 1-.039-.236q-.028-.277-.037-.75a60 60 0 0 1 .01-2.537c.042-2.059.152-4.711.314-7.103.144-2.134.318-3.433.871-4.436.554-1.004 1.466-1.641 2.955-2.463 5.527-3.05 8.33-5.973 11.207-11.684a81 81 0 0 0 1.885-3.994c.23-.53.406-.965.512-1.267l-.2.06c-.366.117-.85.278-1.359.455h-.002c-6.171 2.148-10.115 5.536-12.572 10.78-.227.485-.408.84-.555 1.084a2 2 0 0 1-.203.293.7.7 0 0 1-.115.109.35.35 0 0 1-.229.078.4.4 0 0 1-.283-.16c-.046-.073-.053-.13-.06-.18a1.2 1.2 0 0 1 .004-.308q.039-.346.183-.936c.382-1.577 1.307-4.49 2.598-8.02.76-2.079 1.226-3.25 1.83-4.023.604-.774 1.345-1.09 2.478-1.424 5.458-1.605 7.218-2.55 10.319-5.531 1.163-1.117 3.01-3.353 4.484-5.316.737-.982 1.382-1.899 1.805-2.57a7 7 0 0 0 .396-.702c-.081.008-.15.013-.254.026-.351.042-.816.11-1.302.193-6.43 1.096-9.473 2.743-13.487 7.293-.376.426-.66.716-.88.892-.111.089-.19.156-.34.19a.38.38 0 0 1-.303-.059.38.38 0 0 1-.147-.263c-.016-.15.02-.248.065-.381a5 5 0 0 1 .201-.471q.263-.55.795-1.445c2.965-4.994 4.299-6.496 8.291-9.334 7.795-5.541 10.617-9.044 12.422-15.385.184-.646.294-1.093.334-1.352.003-.017 0-.013.002-.029zm19.575 7.39c-.477.04-.842.156-1.204.34-1.087.556-1.718 1.49-1.87 2.475s.17 2.022 1.042 2.81c.812.734 2.476 1.506 4.535 2.116 2.06.609 4.52 1.071 6.957 1.261 1.448.113 2.396.233 2.9.389a1 1 0 0 1 .329.152c.05.04.11.096.143.196s.009.23-.04.306c-.095.152-.199.18-.312.223-.114.044-.249.08-.416.115-3.433.74-5.731 3.517-5.723 6.893.013 5.304 4.577 10.57 10.278 11.79 1.89.407 3.137.393 5.752-.066 3.202-.56 6.052-2.764 7.822-5.533s2.448-6.082 1.396-8.846c-.348-.915-1.222-1.978-2.21-2.787-.99-.808-2.106-1.353-2.819-1.359h-.002a1.3 1.3 0 0 1-.748-.234.7.7 0 0 1-.244-.291.51.51 0 0 1 .031-.448l.002-.004c.065-.102.121-.121.17-.146q.072-.036.15-.06a3 3 0 0 1 .38-.094 10 10 0 0 1 1.077-.141c3.335-.265 8.503-1.212 10.582-1.928 1.286-.442 2.26-1.066 2.887-1.795s.913-1.553.838-2.463c-.05-.61-.17-1.004-.42-1.337-.25-.334-.655-.629-1.32-.963-.922-.465-1.617-.645-2.854-.49-1.237.154-3.002.668-5.91 1.626-5.959 1.964-8.562 2.538-11.668 2.557-3.391.02-4.74-.242-9.99-1.937-5.63-1.82-8.091-2.445-9.522-2.327m25.91 12.971c.707.012 1.36.569 1.873 1.346a5.4 5.4 0 0 1 .88 2.912c.012 3.631-2.801 6.857-6.808 7.896-3.28.85-7.04-.074-9.6-2.359-1.482-1.324-2.368-3.153-2.584-4.873s.245-3.373 1.534-4.229c.435-.288.74-.481 1.107-.43a.77.77 0 0 1 .46.268c.116.133.206.293.298.487l.219.463 2.156.14c3.076.201 5.428.166 7.502-.107.844-.112 1.274-.183 1.457-.26a.33.33 0 0 0 .164-.117 2 2 0 0 0 .164-.303c.257-.538.706-.842 1.178-.834m7.023 12.143c-.065.012-.082.022-.158.115s-.18.266-.332.506c-.845 1.338-2.895 3.313-4.256 4.103l-.465.27c.732.14 2.379.594 4.244 1.146 1.905.565 3.966 1.211 5.268 1.672 6.975 2.468 14.442 6.628 20 11.143.698.568 1.822 1.475 2.492 2.017 2.013 1.627 4.621 4.083 5.852 5.514l3.056 3.553c.32.372.565.636.836.94-.132-.309-.262-.604-.406-.958-3.76-9.266-9.231-15.774-18.566-22.07-4.907-3.309-11.764-6.567-16.063-7.65-.931-.235-1.372-.327-1.502-.301m-27.828.004c-.45.022-1.366.297-3.14.863-7.099 2.267-12.017 5.013-19.364 10.81-5.389 4.253-10.445 10.71-13 16.596a294 294 0 0 0-1.367 3.195c3.39-4.314 8.849-9.646 13.726-13.312 8.506-6.393 14.777-9.358 26.72-12.633.72-.198 1.377-.388 1.849-.535.093-.029.14-.047.219-.072-.117-.069-.22-.132-.362-.207-.575-.306-1.466-1.045-2.353-1.866-.887-.82-1.736-1.697-2.153-2.298v-.002c-.158-.23-.273-.377-.369-.448-.096-.07-.18-.103-.406-.091m14.744 10.293a55 55 0 0 0-5.115.15c-11.185.874-20.377 4.19-29.875 10.781-3.958 2.745-9.345 7.872-12.318 11.723-.602.779-1.051 1.364-1.34 1.816-.29.453-.407.762-.409.985s.09.417.36.705c.27.287.707.637 1.299 1.103 1.715 1.352 8.545 7.487 11.37 10.205 7.338 7.059 18.492 12.498 28.626 13.955 1.204.174 1.82.207 2.234.57.207.183.297.45.319.727.02.278-.006.596-.036 1.014-.152 2.214-.977 5.006-2.605 8.896-3.572 8.538-4.485 11.878-4.324 15.733.115 2.767 1.436 5.453 3.705 7.5 1.09.985 3.372 1.987 5.422 2.342 5.173.894 10.615-2.343 12.18-7.233 1.275-3.985.657-8.173-2.31-15.19-1.426-3.375-2.577-6.58-3.284-9.04-.354-1.23-.598-2.274-.71-3.07a5.3 5.3 0 0 1-.064-1.012c.016-.279.055-.517.24-.703h.002c.063-.062.09-.065.116-.077q.038-.015.072-.025a2 2 0 0 1 .166-.043q.194-.044.5-.096c.405-.07.943-.151 1.521-.226 6.402-.83 13.19-3.173 18.428-6.358 5.733-3.485 8.09-5.271 13.012-9.865v-.002c15.376-14.29-15.163 14.067.226-.209s-15.177 14.05.227-.21c15.403-14.262-15.19 14.037.226-.21 15.418-14.246-15.202 14.023.229-.209s-15.218 14.008.227-.209-15.232 13.991.226-.21c15.458-14.203-15.243 13.98.229-.208 15.471-14.187-15.257 13.964.228-.209s-15.272 13.949.227-.209c15.498-14.157-15.284 13.934.228-.209s-15.297 13.921.229-.207-15.311 13.904.228-.209-15.324 13.891.229-.207-15.338 13.876.228-.207c15.567-14.083-15.35 13.861.23-.207s-15.364 13.846.23-.207c15.593-14.053-15.377 13.831.23-.207s-15.392 13.816.228-.207-15.403 13.803.23-.205-15.416 13.786.231-.207-15.43 13.773.23-.205-15.443 13.758.231-.205-15.457 13.743.23-.205-15.47 13.728.231-.205c15.7-13.933-15.482 13.713.232-.205 15.715-13.918-15.496 13.698.231-.205s-15.508 13.682.232-.206c15.741-13.887-15.523 13.67.23-.203 15.755-13.873-15.534 13.653.233-.205 15.768-13.857-15.548 13.64.233-.203 15.78-13.842-15.562 13.623.232-.205s-15.575 13.61.233-.203a93 93 0 0 0 2.445-2.186c.313-.292.566-.536.736-.71.074-.076.124-.132.162-.176-.01-.023-.03-.113-.125-.284a9 9 0 0 0-.506-.785 38 38 0 0 0-1.804-2.306c-1.469-1.759-3.36-3.826-5.03-5.434-7.64-7.36-15.205-11.767-25.195-14.674-4.361-1.269-9.937-2.015-15.209-2.094zm-8.213 8.445c.21-.015.433.586.422.371.066.021-.417.859-.14.318a12 12 0 0 1-.247.34c-.204.276-.486.64-.795 1.03-1.175 1.479-2.964 4.975-3.263 6.312-.264 1.174-.211 4.358.097 5.582 1.036 4.11 4.32 7.402 8.364 8.39h.002c1.337.328 5.104.271 6.492-.103 4.132-1.114 7.372-4.865 8.392-9.783.273-1.316.244-4.996-.044-6.254-.047-.201-.066-.37.004-.549a.53.53 0 0 1 .464-.304c.344.007.608.209.936.48.657.543 1.436 1.471 1.914 2.453.657 1.35.925 3.263.863 5.219-.061 1.956-.456 3.95-1.191 5.453v.002c-2.147 4.387-6.218 7.72-10.908 8.928-9.816 2.528-19.61-4.06-20.782-13.989-.269-2.284.16-4.79 1.053-6.988.893-2.197 2.248-4.09 3.893-5.127.756-.477 1.872-.985 2.816-1.34a10 10 0 0 1 1.225-.388c.164-.037.298-.058.433-.053m26.291.53c.64 0 1.538.298 2.67.782s2.475 1.164 3.889 1.957c2.827 1.588 5.93 3.631 8.152 5.485 1.049.875 2.646 2.34 4.057 3.69a92 92 0 0 1 1.885 1.847c.519.528.887.92 1.062 1.166l.371.521a.3.3 0 0 1 .012.332l-.383.618c-.27.436-.835 1.071-1.611 1.87-.777.8-1.758 1.748-2.824 2.733-2.134 1.97-4.608 4.093-6.475 5.486-8.207 6.124-14.11 8.811-22.432 10.206-2.718.455-8.06.735-10.236.525-4.741-.459-10.025-1.685-13.606-3.162-4.536-1.872-10.358-5.284-13.384-7.854a135 135 0 0 0-2.602-2.136c-.804-.642-2.62-2.361-4.324-4.037a125 125 0 0 1-2.315-2.33c-.64-.667-1.08-1.133-1.26-1.409-.081-.126-.148-.228-.2-.344a.7.7 0 0 1-.063-.4c.045-.28.21-.459.465-.8 3.306-4.416 12.425-11.103 18.63-13.7.775-.324 1.251-.503 1.659-.463.102.01.212.04.309.117a.5.5 0 0 1 .168.315c.026.22-.053.394-.163.603-3.5 6.708-3.728 12.728-.738 19.282 2.918 6.395 9.961 11.312 17.424 12.14 5.328.592 11.816-1.025 16.223-4.043 3.919-2.685 7.385-8.197 8.365-13.343.755-3.967-.374-10.165-2.5-13.684-.465-.77-.693-1.11-.785-1.399a.46.46 0 0 1-.022-.261.43.43 0 0 1 .217-.264c.171-.077.257-.047.365-.047m-20.713 1.37c.253-.042.506-.045.756.002 1.728.324 2.77 1.965 3.01 3.674s-.31 3.577-1.879 4.377c-2.48 1.264-5.428-.704-5.428-3.586 0-1.156.604-2.329 1.422-3.195.614-.65 1.362-1.144 2.12-1.272m-1.082 55.278c.192.012.33.156.403.287.143.262.199.612.256 1.162.113 1.1.16 2.957.205 5.816l.1 6.418a.3.3 0 0 1-.083.21l-.562.599c-.654.697-1.577.884-2.403.635-.825-.25-1.565-.919-1.937-1.893h.002c-.403-1.056-.215-2.849.297-4.975a32.4 32.4 0 0 1 2.474-6.724c.323-.64.55-1.084.823-1.348.102-.099.233-.2.425-.187" style="display:inline;fill:#000;fill-opacity:1;stroke:none;stroke-width:.999998;stroke-dasharray:none;stroke-opacity:1" transform="translate(-56.697 -56.665)">
    <desc>
      Traced logo based on chatgpt-generated design. The Ministry of Offence lives.
    </desc>
  </path>
</svg>
